<svg width="54" height="54" viewBox="0 0 54 54" fill="none" xmlns="http://www.w3.org/2000/svg">
<g clip-path="url(#clip0_517_10)">
<path d="M27.1063 40.0572C23.5885 40.0572 20.2149 38.6597 17.7275 36.1723C15.24 33.6849 13.8426 30.3112 13.8426 26.7935C13.8426 23.2757 15.24 19.9021 17.7275 17.4146C20.2149 14.9272 23.5885 13.5298 27.1063 13.5298C30.624 13.5298 33.9977 14.9272 36.4851 17.4146C38.9725 19.9021 40.37 23.2757 40.37 26.7935C40.37 30.3112 38.9725 33.6849 36.4851 36.1723C33.9977 38.6597 30.624 40.0572 27.1063 40.0572ZM24.8957 2.47675H29.3169V9.10858H24.8957V2.47675ZM24.8957 44.4784H29.3169V51.1102H24.8957V44.4784ZM8.34924 11.1622L11.475 8.03644L16.1638 12.7251L13.0379 15.851L8.34924 11.1645V11.1622ZM38.0488 40.8618L41.1746 37.736L45.8633 42.4247L42.7375 45.5505L38.0488 40.8618ZM42.7375 8.03422L45.8633 11.1622L41.1746 15.851L38.0488 12.7251L42.7375 8.03644V8.03422ZM13.0379 37.736L16.1638 40.8618L11.475 45.5505L8.34924 42.4247L13.0379 37.736V37.736ZM51.423 24.5829V29.0041H44.7912V24.5829H51.423ZM9.42139 24.5829V29.0041H2.78955V24.5829H9.42139Z" fill="white"/>
</g>
<defs>
<clipPath id="clip0_517_10">
<rect width="53.0547" height="53.0547" fill="white" transform="translate(0.578857 0.266113)"/>
</clipPath>
</defs>
</svg>
